<?xml version="1.0" standalone="no"?>
<!DOCTYPE svg PUBLIC "-//W3C//DTD SVG 20010904//EN"
 "http://www.w3.org/TR/2001/REC-SVG-20010904/DTD/svg10.dtd">
<svg version="1.0" xmlns="http://www.w3.org/2000/svg"
 width="700.000000pt" height="700.000000pt" viewBox="0 0 700.000000 700.000000"
 preserveAspectRatio="xMidYMid meet">
<metadata>
Created by potrace 1.14, written by Peter Selinger 2001-2017
</metadata>
<g transform="translate(0.000000,700.000000) scale(0.100000,-0.100000)"
fill="#000000" stroke="none">
<path d="M4058 6978 c-2 -7 -100 -174 -218 -370 -118 -196 -220 -365 -225
-375 -6 -10 -61 -103 -124 -206 l-113 -189 28 -30 c16 -17 58 -59 92 -94 l64
-62 -59 -12 c-77 -16 -186 -45 -304 -83 l-46 -14 14 51 c33 120 55 208 51 210
-1 2 -61 33 -133 71 -71 37 -134 71 -140 75 -5 4 -57 32 -115 62 -58 31 -257
137 -442 237 -186 99 -341 181 -345 181 -4 0 -8 -255 -7 -567 0 -313 -2 -573
-4 -580 -2 -7 -79 27 -200 87 -108 54 -198 97 -200 96 -1 -2 -3 -109 -3 -239
0 -174 -3 -236 -12 -239 -7 -2 -247 -4 -534 -3 -288 0 -523 -1 -523 -3 0 -2
21 -41 46 -86 26 -44 56 -99 68 -121 50 -90 129 -231 141 -250 7 -11 26 -45
42 -75 17 -30 39 -71 50 -90 12 -19 85 -150 163 -290 78 -140 146 -259 150
-263 4 -4 58 6 120 23 62 17 114 29 116 28 1 -2 -15 -62 -36 -133 -21 -72 -46
-165 -56 -209 l-16 -78 -63 63 c-34 35 -76 77 -93 93 l-30 28 -164 -98 c-89
-55 -167 -101 -173 -104 -61 -30 -805 -485 -803 -491 4 -10 416 -259 429 -259
5 0 9 -4 9 -9 0 -5 8 -11 18 -15 9 -3 31 -14 47 -24 17 -11 121 -74 233 -141
112 -67 217 -131 235 -141 18 -11 48 -29 67 -40 19 -11 49 -29 65 -40 17 -10
33 -19 36 -19 4 -1 47 40 97 90 l90 91 12 -58 c23 -117 113 -412 142 -467 8
-16 7 -18 -9 -14 -160 46 -215 59 -222 51 -4 -5 -25 -47 -46 -94 -21 -47 -60
-131 -87 -188 -26 -57 -48 -105 -48 -107 0 -1 -22 -49 -49 -106 -102 -216
-161 -348 -161 -358 0 -6 23 -12 53 -12 28 -1 63 -2 77 -4 14 -1 79 -5 145 -9
66 -3 144 -9 173 -11 135 -12 164 -15 272 -21 63 -4 142 -8 174 -8 l60 -1 26
100 c15 55 30 99 34 98 4 -1 19 -17 34 -35 51 -63 87 -103 175 -193 l89 -90
-7 -65 c-4 -36 -8 -76 -10 -90 -2 -14 -6 -50 -9 -80 -14 -138 -17 -157 -21
-190 -3 -19 -7 -62 -11 -95 -3 -33 -7 -67 -9 -75 -2 -8 -7 -51 -10 -95 -4 -44
-9 -88 -12 -99 -5 -19 10 -13 137 61 19 11 98 55 175 98 77 43 191 107 254
142 63 36 120 63 130 60 9 -3 66 -28 127 -56 129 -58 236 -98 362 -135 101
-30 87 -27 247 -59 155 -32 258 -44 433 -52 l102 -4 0 165 0 164 -38 0 c-199
0 -436 116 -581 286 -52 61 -120 168 -121 190 0 7 31 11 94 10 l94 -1 133 268
c74 147 139 267 146 267 7 0 194 -52 415 -115 l403 -115 32 37 c25 31 245 304
365 454 177 223 494 619 509 637 11 13 18 26 15 29 -3 3 -146 6 -318 6 -172 0
-324 3 -338 8 -14 4 -164 47 -335 95 -170 48 -312 88 -314 90 -2 2 34 56 80
121 l83 118 1 385 c1 254 6 399 13 425 51 178 251 270 417 190 57 -27 80 -46
117 -95 23 -30 63 -131 73 -182 10 -49 230 -814 236 -822 7 -8 1047 -12 1054
-4 3 4 66 203 230 727 86 274 124 412 120 429 -7 28 -31 83 -87 203 l-40 85
179 320 c230 408 209 367 186 361 -10 -3 -52 -9 -93 -12 -41 -3 -82 -8 -90
-10 -8 -2 -46 -6 -85 -10 -38 -3 -81 -8 -95 -10 -14 -3 -50 -7 -80 -10 -30 -2
-73 -7 -95 -10 -22 -3 -58 -7 -80 -9 -22 -2 -68 -7 -102 -11 l-62 -7 -74 73
c-89 90 -205 192 -266 236 -10 7 12 16 86 34 43 11 91 25 106 31 l28 11 -6 91
c-5 84 -9 141 -20 286 -3 30 -7 100 -10 155 -4 55 -8 118 -10 140 -4 44 -18
253 -18 273 0 6 -3 12 -6 12 -3 0 -199 -95 -434 -212 -371 -185 -427 -216
-424 -233 4 -19 42 -160 53 -198 5 -17 4 -17 -23 -4 -26 14 -300 105 -333 111
-8 1 -52 11 -98 21 l-83 18 68 67 c37 37 79 79 91 93 l24 25 -59 97 c-32 52
-62 103 -68 113 -5 9 -26 43 -45 75 -19 32 -39 66 -45 76 -39 66 -278 464
-312 518 -23 38 -48 79 -55 93 -37 66 -101 171 -108 175 -5 3 -10 0 -12 -7z"/>
<path d="M6243 1751 l-148 -148 -375 -157 c-206 -87 -388 -163 -405 -171 -16
-7 -182 -77 -368 -155 l-339 -143 -186 -1 -187 -1 -3 -162 -2 -163 220 0 221
0 277 116 c152 64 295 124 317 134 22 10 96 41 165 70 69 29 197 82 285 120
88 37 232 98 320 134 88 37 180 77 205 88 31 14 99 75 216 192 l172 172 -112
112 c-61 62 -114 112 -118 112 -4 0 -74 -67 -155 -149z"/>
<path d="M6115 1120 c-134 -67 -111 -261 35 -300 55 -15 97 -2 145 44 35 33
45 50 50 88 10 69 -23 135 -85 166 -55 27 -93 28 -145 2z"/>
<path d="M4995 642 c-114 -40 -146 -183 -61 -268 97 -97 261 -34 273 103 4 55
-22 112 -69 146 -28 21 -108 31 -143 19z"/>
</g>
</svg>
